<?xml version="1.0" encoding="UTF-8"?>
<svg width="128px" height="128px" viewBox="0 0 128 128" version="1.1" xmlns="http://www.w3.org/2000/svg" xmlns:xlink="http://www.w3.org/1999/xlink">
    <!-- Generator: Sketch 53 (72520) - https://sketchapp.com -->
    <title>16-link</title>
    <desc>Created with Sketch.</desc>
    <g id="Set-2" stroke="none" stroke-width="1" fill="none" fill-rule="evenodd">
        <g id="16x16-(144)-set-1" transform="translate(-296.000000, -8.000000)">
            <g id="_slices" transform="translate(8.000000, 8.000000)"></g>
            <g id="link" transform="translate(306.000000, 18.000000)" stroke="#000000" stroke-linecap="round" stroke-linejoin="round" stroke-width="16">
                <path d="M38,70 C46,78 62,78 70,70 C78,62 94,46 102,38 C110,30 110,14 102,6 C94,-2 78,-2 70,6" id="Line"></path>
                <path d="M70,38 C62,30 46,30 38,38 C30,46 14,62 6,70 C-2,78 -2,94 6,102 C14,110 30,110 38,102" id="Line-2"></path>
            </g>
        </g>
    </g>
</svg>