<?xml version="1.0" encoding="UTF-8"?>
<svg width="160px" height="160px" viewBox="0 0 160 160" version="1.1" xmlns="http://www.w3.org/2000/svg" xmlns:xlink="http://www.w3.org/1999/xlink">
    <!-- Generator: Sketch 53 (72520) - https://sketchapp.com -->
    <title>20-link</title>
    <desc>Created with Sketch.</desc>
    <g id="Set-2" stroke="none" stroke-width="1" fill="none" fill-rule="evenodd">
        <g id="20x20-(176)" transform="translate(-362.000000, -8.000000)">
            <g id="_slices" transform="translate(8.000000, 8.000000)"></g>
            <g id="link" transform="translate(375.000000, 23.000000)" stroke="#000000" stroke-linecap="round" stroke-linejoin="round" stroke-width="16">
                <path d="M49,81 C61,93 85,93 97,81 C109,69 109,69 121,57 C133,45 133,21 121,9 C109,-3 85,-3 73,9" id="Line"></path>
                <path d="M81,49 C69,37 45,37 33,49 C21,61 21,61 9,73 C-3,85 -3,109 9,121 C21,133 45,133 57,121" id="Line-2"></path>
            </g>
        </g>
    </g>
</svg>