<?xml version="1.0" encoding="UTF-8"?>
<svg width="192px" height="192px" viewBox="0 0 192 192" version="1.1" xmlns="http://www.w3.org/2000/svg" xmlns:xlink="http://www.w3.org/1999/xlink">
    <!-- Generator: Sketch 53 (72520) - https://sketchapp.com -->
    <title>24-link</title>
    <desc>Created with Sketch.</desc>
    <g id="Set-2" stroke="none" stroke-width="1" fill="none" fill-rule="evenodd">
        <g id="24x24-(208)" transform="translate(-424.000000, -8.000000)">
            <g id="_slices" transform="translate(8.000000, 8.000000)"></g>
            <g id="link" transform="translate(439.000000, 23.000000)" stroke="#000000" stroke-linecap="round" stroke-linejoin="round" stroke-width="16">
                <path d="M65,97 C77,109 101,109 113,97 C125,85 141,69 153,57 C165,45 165,21 153,9 C141,-3 117,-3 105,9" id="Line"></path>
                <path d="M97,65 C85,53 61,53 49,65 C37,77 21,93 9,105 C-3,117 -3,141 9,153 C21,165 45,165 57,153" id="Line-2"></path>
            </g>
        </g>
    </g>
</svg>